<svg xmlns="http://www.w3.org/2000/svg" width="64" height="64" viewBox="0 0 64 64" shape-rendering="crispEdges">
  <rect width="64" height="64" fill="#12161a"/>
  <rect x="16" y="12" width="32" height="4" fill="#22d3ee"/>
  <rect x="12" y="16" width="40" height="4" fill="#22d3ee"/>
  <rect x="8" y="20" width="48" height="4" fill="#22d3ee"/>
  <rect x="8" y="24" width="8" height="4" fill="#22d3ee"/>
  <rect x="16" y="24" width="8" height="4" fill="#f8fafc"/>
  <rect x="24" y="24" width="16" height="4" fill="#22d3ee"/>
  <rect x="40" y="24" width="8" height="4" fill="#f8fafc"/>
  <rect x="48" y="24" width="8" height="4" fill="#22d3ee"/>
  <rect x="8" y="28" width="8" height="4" fill="#22d3ee"/>
  <rect x="16" y="28" width="4" height="4" fill="#f8fafc"/>
  <rect x="20" y="28" width="4" height="4" fill="#0b1220"/>
  <rect x="24" y="28" width="16" height="4" fill="#22d3ee"/>
  <rect x="40" y="28" width="4" height="4" fill="#0b1220"/>
  <rect x="44" y="28" width="4" height="4" fill="#f8fafc"/>
  <rect x="48" y="28" width="8" height="4" fill="#22d3ee"/>
  <rect x="8" y="32" width="48" height="4" fill="#22d3ee"/>
  <rect x="8" y="36" width="48" height="4" fill="#22d3ee"/>
  <rect x="8" y="40" width="48" height="4" fill="#22d3ee"/>
  <rect x="8" y="44" width="48" height="4" fill="#22d3ee"/>
  <rect x="8" y="48" width="48" height="4" fill="#22d3ee"/>
  <rect x="8" y="52" width="8" height="4" fill="#22d3ee"/>
  <rect x="20" y="52" width="8" height="4" fill="#22d3ee"/>
  <rect x="36" y="52" width="8" height="4" fill="#22d3ee"/>
  <rect x="48" y="52" width="8" height="4" fill="#22d3ee"/>
</svg>
